<?xml version="1.0" encoding="UTF-8"?>
<svg version="1.1" xmlns="http://www.w3.org/2000/svg" width="500" height="500">
<path d="M0 0 C165 0 330 0 500 0 C500 165 500 330 500 500 C335 500 170 500 0 500 C0 335 0 170 0 0 Z " fill="#FEFEFE" transform="translate(0,0)"/>
<path d="M0 0 C4.95784008 2.51264684 8.9250855 6.38762824 12 11 C12 11.66 12 12.32 12 13 C13.00160156 12.66226563 14.00320313 12.32453125 15.03515625 11.9765625 C16.3775767 11.52595983 17.72002617 11.07544362 19.0625 10.625 C19.71927734 10.40328125 20.37605469 10.1815625 21.05273438 9.953125 C33.7023441 5.71581731 33.7023441 5.71581731 39.8125 5.75 C40.74707031 5.74484375 41.68164062 5.7396875 42.64453125 5.734375 C45 6 45 6 47 8 C47.46271615 18.19517918 45.08736118 29.37827155 39.625 38.0625 C39.08875 39.031875 38.5525 40.00125 38 41 C39.19550263 44.5140532 41.57885294 46.92949919 44.0625 49.625 C47.79129094 53.68419014 49.71296015 56.14121309 49.57177734 61.93359375 C48.59447882 65.46555561 45.99087446 66.49152392 42.99951172 68.35839844 C36.78490779 71.75958652 30.26227379 74.47657882 23.75 77.25 C22.29132259 77.87941152 20.83298651 78.50961471 19.375 79.140625 C15.58932117 80.77498379 11.79977755 82.39864153 8 84 C6.6847937 84.57886963 6.6847937 84.57886963 5.34301758 85.16943359 C1.28442479 86.60814701 -2.79563772 86.38253796 -7.0625 86.375 C-8.46834351 86.37258301 -8.46834351 86.37258301 -9.90258789 86.37011719 C-19.47494279 86.20129551 -28.53347872 84.3178257 -36 78 C-39.85933777 73.30047147 -39.41391181 68.53452983 -39.3125 62.75 C-39.31572266 61.84636719 -39.31894531 60.94273437 -39.32226562 60.01171875 C-39.20937858 45.74690111 -39.20937858 45.74690111 -35.6262207 41.29199219 C-33.26821219 39.41861265 -30.93765206 39.32640578 -28 39 C-28.061875 37.88625 -28.12375 36.7725 -28.1875 35.625 C-28.12332192 23.43116441 -21.59669877 11.21667907 -13.515625 2.42578125 C-9.75103004 -1.11565473 -4.85844163 -0.75291639 0 0 Z " fill="#111111" transform="translate(245,199)"/>
<path d="M0 0 C0.66 0 1.32 0 2 0 C2.01417969 0.94359375 2.02835938 1.8871875 2.04296875 2.859375 C2.39429334 12.31665306 3.60151525 20.86072522 9.29296875 28.8046875 C13.93274952 32.05359577 21.88653672 30.33575956 27.171875 29.49609375 C33.18312415 28.13344012 38.15847663 25.98226427 43.5546875 23.05859375 C46.22815607 21.90122956 48.35313327 21.61477095 51.25 21.4375 C55.9366742 21.11326468 58.66368925 20.58653406 62 17 C62.72590377 13.94693415 63.12482677 11.0020998 63.3828125 7.875 C64.11870257 4.44705636 65.3495818 3.21400396 68 1 C69.29398147 2.43541666 70.58510111 3.87341352 71.875 5.3125 C72.95394531 6.51326172 72.95394531 6.51326172 74.0546875 7.73828125 C77.84696467 12.14737459 77.84696467 12.14737459 78.4375 15.4375 C78 18 78 18 75.9375 19.9296875 C72.63472947 22.25743801 69.22299967 24.01363569 65.5625 25.6875 C64.83313232 26.02201172 64.10376465 26.35652344 63.35229492 26.70117188 C61.7600787 27.42383275 60.16531363 28.1408979 58.56835938 28.85302734 C56.80272616 29.6415202 55.04119806 30.43924985 53.28320312 31.24462891 C32.35728102 40.77665658 32.35728102 40.77665658 20 39 C18.50919922 38.814375 18.50919922 38.814375 16.98828125 38.625 C9.00908046 37.40580425 1.0222473 35.78429 -4 29 C-4.69269814 25.15230785 -4.60705955 21.39794086 -4.5 17.5 C-4.50257813 16.46746094 -4.50515625 15.43492187 -4.5078125 14.37109375 C-4.4335086 8.61254186 -4.27813069 4.27813069 0 0 Z " fill="#F6F6F6" transform="translate(213,243)"/>
<path d="M0 0 C-0.72613704 10.71052132 -3.84000112 20.6014306 -9 30 C-17.16937913 24.39814002 -23.61047303 17.95463503 -28 9 C-28 8.01 -28 7.02 -28 6 C-6.49955869 -3.24977935 -6.49955869 -3.24977935 0 0 Z " fill="#F8F8F8" transform="translate(289,209)"/>
<path d="M0 0 C1.95183025 2.49834272 1.68921177 3.35112956 1.375 6.4375 C0.92820178 9.33923348 0.3063008 12.16062128 -0.4375 15 C-2.2009375 15.309375 -2.2009375 15.309375 -4 15.625 C-11.39201138 17.47953289 -15.8943316 23.21778568 -20.4375 29 C-23.66350227 26.05451967 -24.3411369 23.89938895 -24.8125 19.5 C-24.4375 16 -24.4375 16 -22.0625 14.0625 C-19.4375 13 -19.4375 13 -17.4375 13 C-17.7675 12.34 -18.0975 11.68 -18.4375 11 C-20.4175 11.33 -22.3975 11.66 -24.4375 12 C-24.17188668 8.81264018 -23.75217241 7.32482313 -21.5 5 C-8.50246063 -3.48818898 -8.50246063 -3.48818898 0 0 Z " fill="#F8F8F8" transform="translate(256.4375,222)"/>
<path d="M0 0 C4.76005758 2.25649789 6.67407905 5.27220445 8.875 9.875 C9.1946875 10.48730469 9.514375 11.09960938 9.84375 11.73046875 C11.23637297 14.55809887 12.01454124 16.65004089 11.8828125 19.8203125 C11 22 11 22 8 24 C7.67 23.34 7.34 22.68 7 22 C3.97065509 21.34227572 3.97065509 21.34227572 1 21 C0.95101563 20.39671875 0.90203125 19.7934375 0.8515625 19.171875 C0.77679688 18.37265625 0.70203125 17.5734375 0.625 16.75 C0.55539062 15.96109375 0.48578125 15.1721875 0.4140625 14.359375 C0.1228162 11.9728054 0.1228162 11.9728054 -1.09375 9.96875 C-2.69942573 6.48055789 -1.06571163 3.55237209 0 0 Z " fill="#F6F6F6" transform="translate(261,228)"/>
<path d="M0 0 C0.66 0 1.32 0 2 0 C3.22101368 3.66304104 3.4324356 7.1813738 3 11 C2.67902344 11.62519531 2.35804688 12.25039062 2.02734375 12.89453125 C0.73217205 15.54889454 0.58474752 17.81353471 0.375 20.75 C0.30023438 21.73484375 0.22546875 22.7196875 0.1484375 23.734375 C0.09945312 24.48203125 0.05046875 25.2296875 0 26 C-1.66611905 26.042721 -3.33382885 26.04063832 -5 26 C-6.80857688 24.19142312 -6.34166531 21.63564081 -6.4375 19.1875 C-6.42916778 11.65516979 -3.84281578 6.34750822 0 0 Z " fill="#EEEEEE" transform="translate(225,228)"/>
<path d="M0 0 C3.98810518 2.44508829 7.62797918 5.95361155 10 10 C10 10.99 10 11.98 10 13 C4.39723924 11.89945771 0.618307 10.28082882 -4.1015625 7.109375 C-6.65662584 5.61629272 -9.07359877 5.21948009 -12 5 C-12 3 -12 3 -10.5 1.375 C-6.97984175 -0.56108704 -3.86032178 -0.90026161 0 0 Z " fill="#F1F1F1" transform="translate(244,202)"/>
<path d="M0 0 C3.63 0.66 7.26 1.32 11 2 C10.93489583 4.50651042 10.86979167 7.01302083 10.8046875 9.51953125 C10.81714173 12.25402714 10.81714173 12.25402714 13 15 C9.8125 15.5 9.8125 15.5 6 15 C1.77549969 10.79688957 0.36184794 5.78956705 0 0 Z " fill="#F6F6F6" transform="translate(219,256)"/>
<path d="M0 0 C1.32 0 2.64 0 4 0 C4.66 0.99 5.32 1.98 6 3 C9.06556598 3.73343428 9.06556598 3.73343428 12 4 C7.95483871 9.76129032 7.95483871 9.76129032 3.25 10.9375 C2.1775 10.958125 1.105 10.97875 0 11 C-1.89885096 9.10114904 -1.12367506 6.42752097 -1.1328125 3.91015625 C-1 2 -1 2 0 0 Z " fill="#F5F5F5" transform="translate(234,258)"/>
<path d="M0 0 C1.46067199 0.45082469 2.91848032 0.91093537 4.375 1.375 C5.18710938 1.63023437 5.99921875 1.88546875 6.8359375 2.1484375 C9 3 9 3 11 5 C9.04414675 6.00484204 7.08523763 7.00373805 5.125 8 C4.03445312 8.556875 2.94390625 9.11375 1.8203125 9.6875 C-1 11 -1 11 -3 11 C-3.37211538 3.43365385 -3.37211538 3.43365385 -1.48828125 1.23828125 C-0.75158203 0.62533203 -0.75158203 0.62533203 0 0 Z " fill="#F4F4F4" transform="translate(231,209)"/>
<path d="M0 0 C1.65 0 3.3 0 5 0 C5 4 5 4 2.375 6.8125 C-0.29084925 8.89440132 -0.78846545 9.01175192 -4.375 8.8125 C-5.24125 8.544375 -6.1075 8.27625 -7 8 C-6.21625 7.4225 -5.4325 6.845 -4.625 6.25 C-2.19952756 4.17102363 -1.14305583 2.90959667 0 0 Z " fill="#ECECEC" transform="translate(261,252)"/>
<path d="M0 0 C-2.35685348 2.65822163 -4.73559017 3.99775058 -7.9375 5.5 C-11.26256859 7.06473816 -14.12427741 8.70475969 -17 11 C-16.70632234 7.74738139 -16.43744303 6.37977634 -13.92578125 4.19921875 C-5.23717949 -0.82692308 -5.23717949 -0.82692308 0 0 Z " fill="#E4E4E4" transform="translate(246,217)"/>
<path d="M0 0 C-0.99 1.98 -1.98 3.96 -3 6 C-5.64 5.67 -8.28 5.34 -11 5 C-4.83050847 -1.61016949 -4.83050847 -1.61016949 0 0 Z " fill="#EDEDED" transform="translate(255,241)"/>
<path d="M0 0 C0.66 0.33 1.32 0.66 2 1 C1 4 1 4 -1.28515625 5.16796875 C-2.20167969 5.50441406 -3.11820312 5.84085937 -4.0625 6.1875 C-5.44115234 6.70376953 -5.44115234 6.70376953 -6.84765625 7.23046875 C-7.55792969 7.48441406 -8.26820313 7.73835938 -9 8 C-8.74609375 6.14453125 -8.74609375 6.14453125 -8 4 C-6.22265625 2.69921875 -6.22265625 2.69921875 -4.0625 1.6875 C-3.35222656 1.34074219 -2.64195312 0.99398438 -1.91015625 0.63671875 C-1.27980469 0.42660156 -0.64945312 0.21648437 0 0 Z " fill="#202020" transform="translate(284,265)"/>
<path d="M0 0 C1.98 0 3.96 0 6 0 C6 0.99 6 1.98 6 3 C3.69 3.33 1.38 3.66 -1 4 C-0.67 2.68 -0.34 1.36 0 0 Z " fill="#D9D9D9" transform="translate(242,249)"/>
<path d="M0 0 C0.721875 0.103125 1.44375 0.20625 2.1875 0.3125 C2.1875 0.9725 2.1875 1.6325 2.1875 2.3125 C0.90099294 3.00960731 -0.39190665 3.69492876 -1.6875 4.375 C-2.76644531 4.94927734 -2.76644531 4.94927734 -3.8671875 5.53515625 C-4.50914062 5.79167969 -5.15109375 6.04820312 -5.8125 6.3125 C-6.4725 5.9825 -7.1325 5.6525 -7.8125 5.3125 C-3.50480769 0.38942308 -3.50480769 0.38942308 0 0 Z " fill="#D9D9D9" transform="translate(252.8125,262.6875)"/>
<path d="M0 0 C0.66 0 1.32 0 2 0 C2.125 6.75 2.125 6.75 1 9 C0.01 8.67 -0.98 8.34 -2 8 C-1.47731534 5.23723823 -0.89130413 2.6739124 0 0 Z " fill="#CCCCCC" transform="translate(257,242)"/>
<path d="M0 0 C0.99 0.495 0.99 0.495 2 1 C2.73075648 3.3140622 3.40138258 5.64828869 4 8 C2.68 7.67 1.36 7.34 0 7 C0 4.69 0 2.38 0 0 Z " fill="#D9D9D9" transform="translate(228,245)"/>
<path d="M0 0 C0.625 1.8125 0.625 1.8125 1 4 C0.01 5.485 0.01 5.485 -1 7 C-1.66 7 -2.32 7 -3 7 C-2.25 2.25 -2.25 2.25 0 0 Z " fill="#E6E6E6" transform="translate(273,253)"/>
</svg>
