<svg width="168" height="27" viewBox="0 0 168 27" xmlns="http://www.w3.org/2000/svg">
  <?xml version="1.0" encoding="UTF-8"?>
<svg version="1.1" xmlns="http://www.w3.org/2000/svg" width="500" height="500">
<path d="M0 0 C165 0 330 0 500 0 C500 165 500 330 500 500 C335 500 170 500 0 500 C0 335 0 170 0 0 Z " fill="#FEFEFE" transform="translate(0,0)"/>
<path d="M0 0 C4.70961004 3.37644874 8.78186008 7.17279011 12 12 C16.08216568 11.44852731 19.81457309 10.46465652 23.71044922 9.13330078 C30.47557454 6.82535164 36.76251961 4.91282483 44 6 C44.99 6.495 44.99 6.495 46 7 C46.34481738 17.68933892 44.1415487 26.21517678 40.12109375 36.1171875 C39.75113281 37.06851563 39.38117188 38.01984375 39 39 C38.70738281 39.69480469 38.41476563 40.38960937 38.11328125 41.10546875 C37.79052886 43.18708749 37.79052886 43.18708749 39.546875 45.18359375 C40.27390625 45.92738281 41.0009375 46.67117187 41.75 47.4375 C48.83762376 54.76732673 48.83762376 54.76732673 49.25 60.4375 C47.06010341 66.67870528 41.18239298 68.91136855 35.46875 71.76147461 C32.15452742 73.33144342 28.8133416 74.83777542 25.4609375 76.32421875 C23.36783341 77.25318068 21.28134119 78.19589752 19.1953125 79.140625 C10.15423167 83.19647959 2.22618671 86.38474502 -7.75 86.3125 C-8.54132324 86.30831055 -9.33264648 86.30412109 -10.14794922 86.29980469 C-16.45542955 86.17872992 -22.09246455 85.30562104 -28 83 C-29.13888672 82.56494141 -29.13888672 82.56494141 -30.30078125 82.12109375 C-35.17274234 79.99239411 -37.49999073 77.87528923 -40 73 C-40.5203243 69.52545881 -40.46881863 66.13085408 -40.375 62.625 C-40.37371094 61.7175 -40.37242188 60.81 -40.37109375 59.875 C-40.20342773 46.94608722 -40.20342773 46.94608722 -36.59765625 42.125 C-32.33333333 39 -32.33333333 39 -29 39 C-28.96261719 38.39414063 -28.92523438 37.78828125 -28.88671875 37.1640625 C-27.79327917 23.22806786 -22.82105725 10.93239023 -12.48046875 1.20703125 C-8.58699383 -1.96733221 -4.59672253 -1.49757476 0 0 Z " fill="#111111" transform="translate(93,199)"/>
<path d="M0 0 C0.02578125 1.03898438 0.0515625 2.07796875 0.078125 3.1484375 C0.37574053 11.35947259 0.87952198 18.66839083 5 26 C5.41378906 26.73992187 5.82757813 27.47984375 6.25390625 28.2421875 C7.92418392 30.26638552 7.92418392 30.26638552 10.78515625 30.4609375 C21.45475186 30.18116264 33.30020059 29.56493543 41.9140625 22.41015625 C44.53287403 20.63976119 46.36397073 20.53869384 49.5 20.375 C54.3282416 20.13144983 54.3282416 20.13144983 59 19 C61.39404081 15.09393342 61.34829011 10.76855194 61.55859375 6.3046875 C62.07446768 3.61118645 62.90822326 2.70688982 65 1 C74.62879696 10.15395218 74.62879696 10.15395218 75.3828125 15.93505859 C75 19 75 19 72.90234375 20.89306641 C65.39821409 24.90095384 57.81401626 28.42362009 49.92431641 31.60009766 C47.97038959 32.38692381 46.02205752 33.18651565 44.07421875 33.98828125 C30.50240787 39.53611806 17.0661044 41.55611124 3 36 C-5.2078559 32.11911161 -5.2078559 32.11911161 -6.61328125 28.359375 C-7.9795583 20.02370489 -8.00553891 9.90931292 -5 2 C-2 0 -2 0 0 0 Z " fill="#F4F4F4" transform="translate(63,243)"/>
<path d="M0 0 C3.9281587 2.11065243 6.93021067 4.71108546 8.2578125 9.0234375 C9.42637003 14.77477284 9.62326621 20.36797046 7.01953125 25.671875 C2.79508856 30.3530142 -0.35227887 32.76524525 -6.58984375 33.5078125 C-13.10519171 33.77755621 -17.38651745 32.63488528 -22.29296875 28.234375 C-26.07055025 23.51239813 -25.79297315 18.12312995 -25.640625 12.30078125 C-25.02789121 6.89633156 -22.60437093 4.51215148 -18.85546875 0.859375 C-12.98374451 -1.81895536 -6.17058756 -2.06036654 0 0 Z " fill="#FAFAFA" transform="translate(210.29296875,227.765625)"/>
<path d="M0 0 C1 1 1 1 1.20703125 4.05859375 C0.97827448 8.41360467 0.05165849 11.95438948 -1.3125 16.0625 C-1.63250977 17.0844043 -1.63250977 17.0844043 -1.95898438 18.12695312 C-3.2999043 22.29381176 -4.93772628 26.12340922 -7 30 C-10.50002578 29.42433786 -12.08758995 28.2479443 -14.5 25.6875 C-15.10585937 25.04941406 -15.71171875 24.41132813 -16.3359375 23.75390625 C-17.15964844 22.88572266 -17.15964844 22.88572266 -18 22 C-18.70125 21.38125 -19.4025 20.7625 -20.125 20.125 C-23.11470762 16.7366647 -27 11.65681427 -27 7 C-24.00829014 5.81126504 -21.00555136 4.65324119 -18 3.5 C-17.16082031 3.16613281 -16.32164063 2.83226562 -15.45703125 2.48828125 C-10.04776112 0.43359725 -5.79032126 -0.47375356 0 0 Z " fill="#F9F9F9" transform="translate(135,208)"/>
<path d="M0 0 C1.98 0 3.96 0 6 0 C6 10.89 6 21.78 6 33 C4.68 33 3.36 33 2 33 C1.505 20.625 1.505 20.625 1 8 C0.33613281 9.72089844 -0.32773438 11.44179687 -1.01171875 13.21484375 C-1.90261089 15.45614082 -2.79459466 17.6970042 -3.6875 19.9375 C-4.12255859 21.07380859 -4.55761719 22.21011719 -5.00585938 23.38085938 C-5.44091797 24.46044922 -5.87597656 25.54003906 -6.32421875 26.65234375 C-6.9133606 28.15269165 -6.9133606 28.15269165 -7.5144043 29.68334961 C-8.00465088 30.44784424 -8.49489746 31.21233887 -9 32 C-11.475 32.495 -11.475 32.495 -14 33 C-17.3 25.41 -20.6 17.82 -24 10 C-24.33 17.59 -24.66 25.18 -25 33 C-26.32 33 -27.64 33 -29 33 C-29 22.44 -29 11.88 -29 1 C-27.02 1 -25.04 1 -23 1 C-19.37 9.58 -15.74 18.16 -12 27 C-7.82955111 18.06332381 -3.84000886 9.08257414 0 0 Z " fill="#171717" transform="translate(253,227)"/>
<path d="M0 0 C2.20450673 1.51691058 4.02897871 3.16649182 6 5 C5.69106068 6.6256807 5.3777305 8.25052748 5.0625 9.875 C4.88847656 10.77992188 4.71445313 11.68484375 4.53515625 12.6171875 C4 15 4 15 3 17 C1.109375 17.7109375 1.109375 17.7109375 -1.25 18.375 C-8.4436528 20.67060484 -12.34388203 25.30385568 -17 31 C-20.74525799 27.25474201 -20.68909949 23.01729091 -21 18 C-20.030625 17.566875 -19.06125 17.13375 -18.0625 16.6875 C-14.72268235 15.2985139 -14.72268235 15.2985139 -14 12 C-16.31 12.66 -18.62 13.32 -21 14 C-21 11.8125 -21 11.8125 -20 9 C-17.52844459 6.98658657 -14.78782869 5.53057262 -12 4 C-11.36964844 3.60296875 -10.73929688 3.2059375 -10.08984375 2.796875 C-6.6295231 0.63702651 -4.07150082 -0.93957711 0 0 Z " fill="#F7F7F7" transform="translate(100,220)"/>
<path d="M0 0 C3.77640926 1.45025603 5.75160547 3.62740821 8 7 C8 7.99 8 8.98 8 10 C6.68 10 5.36 10 4 10 C1.875 7.5625 1.875 7.5625 0 5 C-3.07194908 3.46402546 -5.60244293 3.7734962 -9 4 C-13.21431855 5.55238686 -13.21431855 5.55238686 -16.14453125 8.7734375 C-17.78844119 13.05210722 -17.5338842 17.50104901 -17 22 C-15.37795062 25.3020291 -14.09120239 27.17219129 -11.1875 29.375 C-6.65327377 30.67049321 -3.05188287 30.41678378 1.3125 28.6875 C4.21553887 27.12051513 4.21553887 27.12051513 6 24 C6.33 22.35 6.66 20.7 7 19 C1.06 19 -4.88 19 -11 19 C-11 17.68 -11 16.36 -11 15 C-3.41 15 4.18 15 12 15 C12 20.94 12 26.88 12 33 C10.68 33 9.36 33 8 33 C7.505 30.525 7.505 30.525 7 28 C6.4225 28.61875 5.845 29.2375 5.25 29.875 C0.91337871 33.97069788 -2.71105226 34.44479296 -8.53125 34.31640625 C-13.43241527 33.68825057 -16.1193091 30.97590073 -19.3125 27.4375 C-22.66799812 22.59066938 -22.47578394 17.6921061 -22 12 C-20.78446644 6.92730088 -18.3365772 3.89105147 -14 1 C-9.82078179 -1.0896091 -4.55090618 -0.43964368 0 0 Z " fill="#1B1B1B" transform="translate(410,227)"/>
<path d="M0 0 C3.9281587 2.11065243 6.93021067 4.71108546 8.2578125 9.0234375 C9.42637003 14.77477284 9.62326621 20.36797046 7.01953125 25.671875 C2.79508856 30.3530142 -0.35227887 32.76524525 -6.58984375 33.5078125 C-13.10519171 33.77755621 -17.38651745 32.63488528 -22.29296875 28.234375 C-26.07055025 23.51239813 -25.79297315 18.12312995 -25.640625 12.30078125 C-25.02789121 6.89633156 -22.60437093 4.51215148 -18.85546875 0.859375 C-12.98374451 -1.81895536 -6.17058756 -2.06036654 0 0 Z M-20.10546875 7.234375 C-22.4918672 11.2535724 -22.60440594 14.64067648 -22.29296875 19.234375 C-20.30452758 24.57176973 -17.38629227 27.68771324 -12.29296875 30.234375 C-7.06347601 30.63664367 -3.686123 30.1631445 0.70703125 27.234375 C4.21365976 23.54318709 4.99128835 20.62228707 5.14453125 15.671875 C4.96589894 11.42503582 4.71535063 8.44324901 1.70703125 5.234375 C-5.43415395 0.41822684 -14.10186056 0.6097039 -20.10546875 7.234375 Z " fill="#0F0F0F" transform="translate(210.29296875,227.765625)"/>
<path d="M0 0 C1.32 0 2.64 0 4 0 C4 10.89 4 21.78 4 33 C2.35 33 0.7 33 -1 33 C-2.91959204 30.54803298 -4.41327952 28.30743541 -5.9375 25.625 C-6.34162109 24.94566406 -6.74574219 24.26632813 -7.16210938 23.56640625 C-8.45597817 21.3861864 -9.72756478 19.19279814 -11 17 C-12.98 13.7 -14.96 10.4 -17 7 C-17.33 15.58 -17.66 24.16 -18 33 C-18.99 33 -19.98 33 -21 33 C-21 22.44 -21 11.88 -21 1 C-16 1 -16 1 -14.59375 2.34179688 C-14.2328125 2.96119141 -13.871875 3.58058594 -13.5 4.21875 C-12.88125 5.24742187 -12.88125 5.24742187 -12.25 6.296875 C-11.8375 7.02390625 -11.425 7.7509375 -11 8.5 C-10.5875 9.19609375 -10.175 9.8921875 -9.75 10.609375 C-8.9601677 11.94221701 -8.17787957 13.27958467 -7.40625 14.62304688 C-5.33640337 18.12166263 -3.15446865 21.55285015 -1 25 C-0.67 16.75 -0.34 8.5 0 0 Z " fill="#0D0D0D" transform="translate(379,227)"/>
<path d="M0 0 C1.32 0 2.64 0 4 0 C4 4.62 4 9.24 4 14 C9.94 14 15.88 14 22 14 C22 9.38 22 4.76 22 0 C23.32 0 24.64 0 26 0 C26 10.89 26 21.78 26 33 C24.68 33 23.36 33 22 33 C22 28.05 22 23.1 22 18 C16.06 18 10.12 18 4 18 C4 22.95 4 27.9 4 33 C2.68 33 1.36 33 0 33 C0 22.11 0 11.22 0 0 Z " fill="#1A1A1A" transform="translate(317,227)"/>
<path d="M0 0 C3 1.125 3 1.125 5 3 C6.3125 6.1875 6.3125 6.1875 7 9 C5.68 9 4.36 9 3 9 C2.401875 8.175 1.80375 7.35 1.1875 6.5 C-0.84653958 3.62572955 -0.84653958 3.62572955 -4.5625 3.5 C-7.88581635 3.76022592 -7.88581635 3.76022592 -10 5.1875 C-11.39548319 7.71681328 -10.64450524 9.26532848 -10 12 C-8.96359375 12.31453125 -7.9271875 12.6290625 -6.859375 12.953125 C-5.48937869 13.38476767 -4.11959814 13.8170956 -2.75 14.25 C-2.06808594 14.45496094 -1.38617188 14.65992188 -0.68359375 14.87109375 C3.48021768 16.20513042 6.30428677 17.50983223 9 21 C9.60417093 24.08798473 9.64425395 25.97537471 7.94140625 28.68359375 C6.15797625 30.89038992 4.55958977 32.72020511 2 34 C-2.87700022 34.41200591 -7.72604503 34.61186137 -12 32 C-14.01852321 30.0988978 -15.38109795 28.31271722 -17 26 C-17 24.68 -17 23.36 -17 22 C-15.68 22 -14.36 22 -13 22 C-12.7525 22.763125 -12.505 23.52625 -12.25 24.3125 C-10.82439982 27.37754038 -9.99679976 28.46110282 -7 30 C-3.31620474 30.39469235 -0.91320706 30.44489575 2.4375 28.8125 C4.25678355 27.05640154 4.25678355 27.05640154 4.25 24.3125 C4.1675 23.549375 4.085 22.78625 4 22 C2.845 21.566875 1.69 21.13375 0.5 20.6875 C-0.22574219 20.41292969 -0.95148438 20.13835937 -1.69921875 19.85546875 C-3.1955098 19.29912284 -4.69800505 18.7590956 -6.20703125 18.23828125 C-12.64893046 15.97943348 -12.64893046 15.97943348 -15 13 C-15.62059856 8.19036119 -15.7032347 6.12517552 -13.125 2 C-8.7189927 -0.81984467 -5.09442852 -0.75410948 0 0 Z " fill="#121212" transform="translate(173,227)"/>
<path d="M0 0 C7.26 0 14.52 0 22 0 C22 0.99 22 1.98 22 3 C16.06 3 10.12 3 4 3 C4 6.63 4 10.26 4 14 C9.28 14 14.56 14 20 14 C20 14.99 20 15.98 20 17 C14.72 17 9.44 17 4 17 C4 20.96 4 24.92 4 29 C9.94 29 15.88 29 22 29 C22 29.99 22 30.98 22 32 C14.74 32 7.48 32 0 32 C0 21.44 0 10.88 0 0 Z " fill="#090909" transform="translate(264,228)"/>
<path d="M0 0 C8.58 0 17.16 0 26 0 C26 0.99 26 1.98 26 3 C22.37 3 18.74 3 15 3 C15 12.57 15 22.14 15 32 C13.68 32 12.36 32 11 32 C11 22.43 11 12.86 11 3 C7.37 3 3.74 3 0 3 C0 2.01 0 1.02 0 0 Z " fill="#0C0C0C" transform="translate(288,228)"/>
<path d="M0 0 C4.4671304 1.47898236 6.09446865 4.92056839 8.25 8.8125 C8.61351563 9.42931641 8.97703125 10.04613281 9.3515625 10.68164062 C11.37060181 14.25291129 12.47062453 16.88203539 12 21 C10.4375 22.125 10.4375 22.125 8 23 C4.25 22.125 4.25 22.125 1 21 C0.90912109 20.04287109 0.90912109 20.04287109 0.81640625 19.06640625 C0.73261719 18.24011719 0.64882812 17.41382813 0.5625 16.5625 C0.48128906 15.73878906 0.40007812 14.91507813 0.31640625 14.06640625 C0.21069185 12.01337975 0.21069185 12.01337975 -1 11 C-0.91015699 9.14227838 -0.75388139 7.28752015 -0.5625 5.4375 C-0.46066406 4.42558594 -0.35882813 3.41367188 -0.25390625 2.37109375 C-0.17011719 1.58863281 -0.08632812 0.80617187 0 0 Z " fill="#F6F6F6" transform="translate(108,228)"/>
<path d="M0 0 C2 2 2 2 2.265625 4.2421875 C2.26046875 5.11101562 2.2553125 5.97984375 2.25 6.875 C2.25515625 7.73867187 2.2603125 8.60234375 2.265625 9.4921875 C2 12 2 12 0.9921875 13.9921875 C-0.26671426 16.53972885 -0.1993126 18.42612131 -0.125 21.25 C-0.10695313 22.14203125 -0.08890625 23.0340625 -0.0703125 23.953125 C-0.04710938 24.62859375 -0.02390625 25.3040625 0 26 C-1.99954746 26.04254356 -4.00041636 26.04080783 -6 26 C-7 25 -7 25 -7.1875 21.5 C-7.03696898 13.07026282 -4.89386968 6.85515333 0 0 Z " fill="#F2F2F2" transform="translate(73,228)"/>
<path d="M0 0 C1.32 0 2.64 0 4 0 C4 10.89 4 21.78 4 33 C2.68 33 1.36 33 0 33 C0 22.11 0 11.22 0 0 Z " fill="#161616" transform="translate(348,227)"/>
<path d="M0 0 C5.48992736 0.25322543 8.76081215 3.81293143 12.3125 7.6875 C15.3125 11.34438488 15.3125 11.34438488 15.3125 13.6875 C9.38382938 13.42973171 5.68685439 11.37497961 0.7421875 8.16015625 C-1.67192651 6.69693924 -4.04311978 5.66149769 -6.6875 4.6875 C-4.92384431 1.16018862 -3.95414721 0.73721389 0 0 Z " fill="#F3F3F3" transform="translate(86.6875,201.3125)"/>
<path d="M0 0 C3.63 0.33 7.26 0.66 11 1 C10.95117188 5.19921875 10.95117188 5.19921875 10.90234375 9.3984375 C10.81993398 11.98432453 10.81993398 11.98432453 12 14 C9.25 14.3125 9.25 14.3125 6 14 C2.9769386 11.06091253 1.23599966 8.0169989 0 4 C0 2.68 0 1.36 0 0 Z " fill="#F8F8F8" transform="translate(67,257)"/>
<path d="M0 0 C2.4375 0.375 2.4375 0.375 5 1 C5.33 1.66 5.66 2.32 6 3 C8.32156597 3.40729228 10.6568787 3.74438677 13 4 C10.42215154 6.64752004 8.08351902 8.94432065 5 11 C0.45945946 10.45945946 0.45945946 10.45945946 -1 9 C-0.91062197 7.47480724 -0.75462854 5.95318071 -0.5625 4.4375 C-0.46066406 3.61121094 -0.35882813 2.78492188 -0.25390625 1.93359375 C-0.17011719 1.29550781 -0.08632812 0.65742188 0 0 Z " fill="#F1F1F1" transform="translate(81,258)"/>
<path d="M0 0 C8.16964286 1.74107143 8.16964286 1.74107143 11 5 C9.04414675 6.00484204 7.08523763 7.00373805 5.125 8 C4.03445312 8.556875 2.94390625 9.11375 1.8203125 9.6875 C-1 11 -1 11 -3 11 C-3.36923077 4.6 -3.36923077 4.6 -1.5 1.5625 C-1.005 1.046875 -0.51 0.53125 0 0 Z " fill="#EDEDED" transform="translate(78,209)"/>
<path d="M0 0 C1.62490954 -0.02698189 3.24994633 -0.04638757 4.875 -0.0625 C5.77992188 -0.07410156 6.68484375 -0.08570313 7.6171875 -0.09765625 C10 0 10 0 12 1 C12 3.97 12 6.94 12 10 C11.01 10 10.02 10 9 10 C8.67 8.02 8.34 6.04 8 4 C5.03 4 2.06 4 -1 4 C-0.67 2.68 -0.34 1.36 0 0 Z " fill="#101010" transform="translate(127,205)"/>
<path d="M0 0 C1.65 0 3.3 0 5 0 C5 4 5 4 2.375 6.8125 C-0.29084925 8.89440132 -0.78846545 9.01175192 -4.375 8.8125 C-5.24125 8.544375 -6.1075 8.27625 -7 8 C-3.25 5 -3.25 5 -1 5 C-0.67 3.35 -0.34 1.7 0 0 Z " fill="#EDEDED" transform="translate(108,252)"/>
<path d="M0 0 C-3.1040877 2.58673975 -6.4198157 4.2624338 -10.02734375 6.015625 C-12.43357104 7.21635624 -14.72038977 8.57524361 -17 10 C-17 8.68 -17 7.36 -17 6 C-15.390625 4.55078125 -15.390625 4.55078125 -13.25 3.3125 C-12.55390625 2.89613281 -11.8578125 2.47976562 -11.140625 2.05078125 C-7.36930322 0.19953023 -4.17580602 -0.11599461 0 0 Z " fill="#E8E8E8" transform="translate(94,217)"/>
<path d="M0 0 C0.66 0.33 1.32 0.66 2 1 C1 4 1 4 -0.58227539 4.9831543 C-1.24735107 5.26070557 -1.91242676 5.53825684 -2.59765625 5.82421875 C-3.31630859 6.13037109 -4.03496094 6.43652344 -4.77539062 6.75195312 C-5.53013672 7.06068359 -6.28488281 7.36941406 -7.0625 7.6875 C-7.82111328 8.00783203 -8.57972656 8.32816406 -9.36132812 8.65820312 C-11.23682542 9.44850702 -13.1179123 10.22552197 -15 11 C-14.69311523 9.12231445 -14.69311523 9.12231445 -14 7 C-11.6779979 5.52930082 -9.53072514 4.34455698 -7.0625 3.1875 C-6.41603516 2.86330078 -5.76957031 2.53910156 -5.10351562 2.20507812 C-3.43606649 1.39646053 -1.71990784 0.69004787 0 0 Z " fill="#161616" transform="translate(133,264)"/>
<path d="M0 0 C-0.66 2.31 -1.32 4.62 -2 7 C-4.64 6.67 -7.28 6.34 -10 6 C-10 5.34 -10 4.68 -10 4 C-3.375 0 -3.375 0 0 0 Z " fill="#E9E9E9" transform="translate(102,240)"/>
<path d="M0 0 C2.875 -0.125 2.875 -0.125 6 0 C6.66 0.66 7.32 1.32 8 2 C4.5647952 4.29013653 3.014669 4.17842973 -1 4 C-0.67 2.68 -0.34 1.36 0 0 Z " fill="#D2D2D2" transform="translate(89,249)"/>
<path d="M0 0 C0.78375 0.04125 1.5675 0.0825 2.375 0.125 C2.375 0.785 2.375 1.445 2.375 2.125 C-0.595 3.445 -3.565 4.765 -6.625 6.125 C-3.64939024 0.17378049 -3.64939024 0.17378049 0 0 Z " fill="#CBCBCB" transform="translate(99.625,262.875)"/>
<path d="M0 0 C0.33 0 0.66 0 1 0 C1 2.97 1 5.94 1 9 C-0.32 8.34 -1.64 7.68 -3 7 C-1.125 1.125 -1.125 1.125 0 0 Z " fill="#DDDDDD" transform="translate(105,242)"/>
<path d="M0 0 C-3.1254959 2.64465038 -6.08788267 3.84414715 -10 5 C-9.67 3.68 -9.34 2.36 -9 1 C-5.92677456 0.08941469 -3.19902639 -0.08886184 0 0 Z " fill="#E0E0E0" transform="translate(94,217)"/>
<path d="M0 0 C0.66 0 1.32 0 2 0 C2.66 2.64 3.32 5.28 4 8 C2.68 7.34 1.36 6.68 0 6 C0 4.02 0 2.04 0 0 Z " fill="#D4D4D4" transform="translate(75,245)"/>
<path d="M0 0 C0.33 0 0.66 0 1 0 C1 1.65 1 3.3 1 5 C-0.98 5.99 -0.98 5.99 -3 7 C-2.25 2.25 -2.25 2.25 0 0 Z " fill="#ECECEC" transform="translate(120,253)"/>
</svg>

</svg>




<?xml version="1.0" encoding="UTF-8"?>
<svg version="1.1" xmlns="http://www.w3.org/2000/svg" width="500" height="500">
<path d="M0 0 C165 0 330 0 500 0 C500 165 500 330 500 500 C335 500 170 500 0 500 C0 335 0 170 0 0 Z " fill="#FEFEFE" transform="translate(0,0)"/>
<path d="M0 0 C4.70961004 3.37644874 8.78186008 7.17279011 12 12 C16.08216568 11.44852731 19.81457309 10.46465652 23.71044922 9.13330078 C30.47557454 6.82535164 36.76251961 4.91282483 44 6 C44.99 6.495 44.99 6.495 46 7 C46.34481738 17.68933892 44.1415487 26.21517678 40.12109375 36.1171875 C39.75113281 37.06851563 39.38117188 38.01984375 39 39 C38.70738281 39.69480469 38.41476563 40.38960937 38.11328125 41.10546875 C37.79052886 43.18708749 37.79052886 43.18708749 39.546875 45.18359375 C40.27390625 45.92738281 41.0009375 46.67117187 41.75 47.4375 C48.83762376 54.76732673 48.83762376 54.76732673 49.25 60.4375 C47.06010341 66.67870528 41.18239298 68.91136855 35.46875 71.76147461 C32.15452742 73.33144342 28.8133416 74.83777542 25.4609375 76.32421875 C23.36783341 77.25318068 21.28134119 78.19589752 19.1953125 79.140625 C10.15423167 83.19647959 2.22618671 86.38474502 -7.75 86.3125 C-8.54132324 86.30831055 -9.33264648 86.30412109 -10.14794922 86.29980469 C-16.45542955 86.17872992 -22.09246455 85.30562104 -28 83 C-29.13888672 82.56494141 -29.13888672 82.56494141 -30.30078125 82.12109375 C-35.17274234 79.99239411 -37.49999073 77.87528923 -40 73 C-40.5203243 69.52545881 -40.46881863 66.13085408 -40.375 62.625 C-40.37371094 61.7175 -40.37242188 60.81 -40.37109375 59.875 C-40.20342773 46.94608722 -40.20342773 46.94608722 -36.59765625 42.125 C-32.33333333 39 -32.33333333 39 -29 39 C-28.96261719 38.39414063 -28.92523438 37.78828125 -28.88671875 37.1640625 C-27.79327917 23.22806786 -22.82105725 10.93239023 -12.48046875 1.20703125 C-8.58699383 -1.96733221 -4.59672253 -1.49757476 0 0 Z " fill="#111111" transform="translate(93,199)"/>
<path d="M0 0 C0.02578125 1.03898438 0.0515625 2.07796875 0.078125 3.1484375 C0.37574053 11.35947259 0.87952198 18.66839083 5 26 C5.41378906 26.73992187 5.82757813 27.47984375 6.25390625 28.2421875 C7.92418392 30.26638552 7.92418392 30.26638552 10.78515625 30.4609375 C21.45475186 30.18116264 33.30020059 29.56493543 41.9140625 22.41015625 C44.53287403 20.63976119 46.36397073 20.53869384 49.5 20.375 C54.3282416 20.13144983 54.3282416 20.13144983 59 19 C61.39404081 15.09393342 61.34829011 10.76855194 61.55859375 6.3046875 C62.07446768 3.61118645 62.90822326 2.70688982 65 1 C74.62879696 10.15395218 74.62879696 10.15395218 75.3828125 15.93505859 C75 19 75 19 72.90234375 20.89306641 C65.39821409 24.90095384 57.81401626 28.42362009 49.92431641 31.60009766 C47.97038959 32.38692381 46.02205752 33.18651565 44.07421875 33.98828125 C30.50240787 39.53611806 17.0661044 41.55611124 3 36 C-5.2078559 32.11911161 -5.2078559 32.11911161 -6.61328125 28.359375 C-7.9795583 20.02370489 -8.00553891 9.90931292 -5 2 C-2 0 -2 0 0 0 Z " fill="#F4F4F4" transform="translate(63,243)"/>
<path d="M0 0 C3.9281587 2.11065243 6.93021067 4.71108546 8.2578125 9.0234375 C9.42637003 14.77477284 9.62326621 20.36797046 7.01953125 25.671875 C2.79508856 30.3530142 -0.35227887 32.76524525 -6.58984375 33.5078125 C-13.10519171 33.77755621 -17.38651745 32.63488528 -22.29296875 28.234375 C-26.07055025 23.51239813 -25.79297315 18.12312995 -25.640625 12.30078125 C-25.02789121 6.89633156 -22.60437093 4.51215148 -18.85546875 0.859375 C-12.98374451 -1.81895536 -6.17058756 -2.06036654 0 0 Z " fill="#FAFAFA" transform="translate(210.29296875,227.765625)"/>
<path d="M0 0 C1 1 1 1 1.20703125 4.05859375 C0.97827448 8.41360467 0.05165849 11.95438948 -1.3125 16.0625 C-1.63250977 17.0844043 -1.63250977 17.0844043 -1.95898438 18.12695312 C-3.2999043 22.29381176 -4.93772628 26.12340922 -7 30 C-10.50002578 29.42433786 -12.08758995 28.2479443 -14.5 25.6875 C-15.10585937 25.04941406 -15.71171875 24.41132813 -16.3359375 23.75390625 C-17.15964844 22.88572266 -17.15964844 22.88572266 -18 22 C-18.70125 21.38125 -19.4025 20.7625 -20.125 20.125 C-23.11470762 16.7366647 -27 11.65681427 -27 7 C-24.00829014 5.81126504 -21.00555136 4.65324119 -18 3.5 C-17.16082031 3.16613281 -16.32164063 2.83226562 -15.45703125 2.48828125 C-10.04776112 0.43359725 -5.79032126 -0.47375356 0 0 Z " fill="#F9F9F9" transform="translate(135,208)"/>
<path d="M0 0 C1.98 0 3.96 0 6 0 C6 10.89 6 21.78 6 33 C4.68 33 3.36 33 2 33 C1.505 20.625 1.505 20.625 1 8 C0.33613281 9.72089844 -0.32773438 11.44179687 -1.01171875 13.21484375 C-1.90261089 15.45614082 -2.79459466 17.6970042 -3.6875 19.9375 C-4.12255859 21.07380859 -4.55761719 22.21011719 -5.00585938 23.38085938 C-5.44091797 24.46044922 -5.87597656 25.54003906 -6.32421875 26.65234375 C-6.9133606 28.15269165 -6.9133606 28.15269165 -7.5144043 29.68334961 C-8.00465088 30.44784424 -8.49489746 31.21233887 -9 32 C-11.475 32.495 -11.475 32.495 -14 33 C-17.3 25.41 -20.6 17.82 -24 10 C-24.33 17.59 -24.66 25.18 -25 33 C-26.32 33 -27.64 33 -29 33 C-29 22.44 -29 11.88 -29 1 C-27.02 1 -25.04 1 -23 1 C-19.37 9.58 -15.74 18.16 -12 27 C-7.82955111 18.06332381 -3.84000886 9.08257414 0 0 Z " fill="#171717" transform="translate(253,227)"/>
<path d="M0 0 C2.20450673 1.51691058 4.02897871 3.16649182 6 5 C5.69106068 6.6256807 5.3777305 8.25052748 5.0625 9.875 C4.88847656 10.77992188 4.71445313 11.68484375 4.53515625 12.6171875 C4 15 4 15 3 17 C1.109375 17.7109375 1.109375 17.7109375 -1.25 18.375 C-8.4436528 20.67060484 -12.34388203 25.30385568 -17 31 C-20.74525799 27.25474201 -20.68909949 23.01729091 -21 18 C-20.030625 17.566875 -19.06125 17.13375 -18.0625 16.6875 C-14.72268235 15.2985139 -14.72268235 15.2985139 -14 12 C-16.31 12.66 -18.62 13.32 -21 14 C-21 11.8125 -21 11.8125 -20 9 C-17.52844459 6.98658657 -14.78782869 5.53057262 -12 4 C-11.36964844 3.60296875 -10.73929688 3.2059375 -10.08984375 2.796875 C-6.6295231 0.63702651 -4.07150082 -0.93957711 0 0 Z " fill="#F7F7F7" transform="translate(100,220)"/>
<path d="M0 0 C3.77640926 1.45025603 5.75160547 3.62740821 8 7 C8 7.99 8 8.98 8 10 C6.68 10 5.36 10 4 10 C1.875 7.5625 1.875 7.5625 0 5 C-3.07194908 3.46402546 -5.60244293 3.7734962 -9 4 C-13.21431855 5.55238686 -13.21431855 5.55238686 -16.14453125 8.7734375 C-17.78844119 13.05210722 -17.5338842 17.50104901 -17 22 C-15.37795062 25.3020291 -14.09120239 27.17219129 -11.1875 29.375 C-6.65327377 30.67049321 -3.05188287 30.41678378 1.3125 28.6875 C4.21553887 27.12051513 4.21553887 27.12051513 6 24 C6.33 22.35 6.66 20.7 7 19 C1.06 19 -4.88 19 -11 19 C-11 17.68 -11 16.36 -11 15 C-3.41 15 4.18 15 12 15 C12 20.94 12 26.88 12 33 C10.68 33 9.36 33 8 33 C7.505 30.525 7.505 30.525 7 28 C6.4225 28.61875 5.845 29.2375 5.25 29.875 C0.91337871 33.97069788 -2.71105226 34.44479296 -8.53125 34.31640625 C-13.43241527 33.68825057 -16.1193091 30.97590073 -19.3125 27.4375 C-22.66799812 22.59066938 -22.47578394 17.6921061 -22 12 C-20.78446644 6.92730088 -18.3365772 3.89105147 -14 1 C-9.82078179 -1.0896091 -4.55090618 -0.43964368 0 0 Z " fill="#1B1B1B" transform="translate(410,227)"/>
<path d="M0 0 C3.9281587 2.11065243 6.93021067 4.71108546 8.2578125 9.0234375 C9.42637003 14.77477284 9.62326621 20.36797046 7.01953125 25.671875 C2.79508856 30.3530142 -0.35227887 32.76524525 -6.58984375 33.5078125 C-13.10519171 33.77755621 -17.38651745 32.63488528 -22.29296875 28.234375 C-26.07055025 23.51239813 -25.79297315 18.12312995 -25.640625 12.30078125 C-25.02789121 6.89633156 -22.60437093 4.51215148 -18.85546875 0.859375 C-12.98374451 -1.81895536 -6.17058756 -2.06036654 0 0 Z M-20.10546875 7.234375 C-22.4918672 11.2535724 -22.60440594 14.64067648 -22.29296875 19.234375 C-20.30452758 24.57176973 -17.38629227 27.68771324 -12.29296875 30.234375 C-7.06347601 30.63664367 -3.686123 30.1631445 0.70703125 27.234375 C4.21365976 23.54318709 4.99128835 20.62228707 5.14453125 15.671875 C4.96589894 11.42503582 4.71535063 8.44324901 1.70703125 5.234375 C-5.43415395 0.41822684 -14.10186056 0.6097039 -20.10546875 7.234375 Z " fill="#0F0F0F" transform="translate(210.29296875,227.765625)"/>
<path d="M0 0 C1.32 0 2.64 0 4 0 C4 10.89 4 21.78 4 33 C2.35 33 0.7 33 -1 33 C-2.91959204 30.54803298 -4.41327952 28.30743541 -5.9375 25.625 C-6.34162109 24.94566406 -6.74574219 24.26632813 -7.16210938 23.56640625 C-8.45597817 21.3861864 -9.72756478 19.19279814 -11 17 C-12.98 13.7 -14.96 10.4 -17 7 C-17.33 15.58 -17.66 24.16 -18 33 C-18.99 33 -19.98 33 -21 33 C-21 22.44 -21 11.88 -21 1 C-16 1 -16 1 -14.59375 2.34179688 C-14.2328125 2.96119141 -13.871875 3.58058594 -13.5 4.21875 C-12.88125 5.24742187 -12.88125 5.24742187 -12.25 6.296875 C-11.8375 7.02390625 -11.425 7.7509375 -11 8.5 C-10.5875 9.19609375 -10.175 9.8921875 -9.75 10.609375 C-8.9601677 11.94221701 -8.17787957 13.27958467 -7.40625 14.62304688 C-5.33640337 18.12166263 -3.15446865 21.55285015 -1 25 C-0.67 16.75 -0.34 8.5 0 0 Z " fill="#0D0D0D" transform="translate(379,227)"/>
<path d="M0 0 C1.32 0 2.64 0 4 0 C4 4.62 4 9.24 4 14 C9.94 14 15.88 14 22 14 C22 9.38 22 4.76 22 0 C23.32 0 24.64 0 26 0 C26 10.89 26 21.78 26 33 C24.68 33 23.36 33 22 33 C22 28.05 22 23.1 22 18 C16.06 18 10.12 18 4 18 C4 22.95 4 27.9 4 33 C2.68 33 1.36 33 0 33 C0 22.11 0 11.22 0 0 Z " fill="#1A1A1A" transform="translate(317,227)"/>
<path d="M0 0 C3 1.125 3 1.125 5 3 C6.3125 6.1875 6.3125 6.1875 7 9 C5.68 9 4.36 9 3 9 C2.401875 8.175 1.80375 7.35 1.1875 6.5 C-0.84653958 3.62572955 -0.84653958 3.62572955 -4.5625 3.5 C-7.88581635 3.76022592 -7.88581635 3.76022592 -10 5.1875 C-11.39548319 7.71681328 -10.64450524 9.26532848 -10 12 C-8.96359375 12.31453125 -7.9271875 12.6290625 -6.859375 12.953125 C-5.48937869 13.38476767 -4.11959814 13.8170956 -2.75 14.25 C-2.06808594 14.45496094 -1.38617188 14.65992188 -0.68359375 14.87109375 C3.48021768 16.20513042 6.30428677 17.50983223 9 21 C9.60417093 24.08798473 9.64425395 25.97537471 7.94140625 28.68359375 C6.15797625 30.89038992 4.55958977 32.72020511 2 34 C-2.87700022 34.41200591 -7.72604503 34.61186137 -12 32 C-14.01852321 30.0988978 -15.38109795 28.31271722 -17 26 C-17 24.68 -17 23.36 -17 22 C-15.68 22 -14.36 22 -13 22 C-12.7525 22.763125 -12.505 23.52625 -12.25 24.3125 C-10.82439982 27.37754038 -9.99679976 28.46110282 -7 30 C-3.31620474 30.39469235 -0.91320706 30.44489575 2.4375 28.8125 C4.25678355 27.05640154 4.25678355 27.05640154 4.25 24.3125 C4.1675 23.549375 4.085 22.78625 4 22 C2.845 21.566875 1.69 21.13375 0.5 20.6875 C-0.22574219 20.41292969 -0.95148438 20.13835937 -1.69921875 19.85546875 C-3.1955098 19.29912284 -4.69800505 18.7590956 -6.20703125 18.23828125 C-12.64893046 15.97943348 -12.64893046 15.97943348 -15 13 C-15.62059856 8.19036119 -15.7032347 6.12517552 -13.125 2 C-8.7189927 -0.81984467 -5.09442852 -0.75410948 0 0 Z " fill="#121212" transform="translate(173,227)"/>
<path d="M0 0 C7.26 0 14.52 0 22 0 C22 0.99 22 1.98 22 3 C16.06 3 10.12 3 4 3 C4 6.63 4 10.26 4 14 C9.28 14 14.56 14 20 14 C20 14.99 20 15.98 20 17 C14.72 17 9.44 17 4 17 C4 20.96 4 24.92 4 29 C9.94 29 15.88 29 22 29 C22 29.99 22 30.98 22 32 C14.74 32 7.48 32 0 32 C0 21.44 0 10.88 0 0 Z " fill="#090909" transform="translate(264,228)"/>
<path d="M0 0 C8.58 0 17.16 0 26 0 C26 0.99 26 1.98 26 3 C22.37 3 18.74 3 15 3 C15 12.57 15 22.14 15 32 C13.68 32 12.36 32 11 32 C11 22.43 11 12.86 11 3 C7.37 3 3.74 3 0 3 C0 2.01 0 1.02 0 0 Z " fill="#0C0C0C" transform="translate(288,228)"/>
<path d="M0 0 C4.4671304 1.47898236 6.09446865 4.92056839 8.25 8.8125 C8.61351563 9.42931641 8.97703125 10.04613281 9.3515625 10.68164062 C11.37060181 14.25291129 12.47062453 16.88203539 12 21 C10.4375 22.125 10.4375 22.125 8 23 C4.25 22.125 4.25 22.125 1 21 C0.90912109 20.04287109 0.90912109 20.04287109 0.81640625 19.06640625 C0.73261719 18.24011719 0.64882812 17.41382813 0.5625 16.5625 C0.48128906 15.73878906 0.40007812 14.91507813 0.31640625 14.06640625 C0.21069185 12.01337975 0.21069185 12.01337975 -1 11 C-0.91015699 9.14227838 -0.75388139 7.28752015 -0.5625 5.4375 C-0.46066406 4.42558594 -0.35882813 3.41367188 -0.25390625 2.37109375 C-0.17011719 1.58863281 -0.08632812 0.80617187 0 0 Z " fill="#F6F6F6" transform="translate(108,228)"/>
<path d="M0 0 C2 2 2 2 2.265625 4.2421875 C2.26046875 5.11101562 2.2553125 5.97984375 2.25 6.875 C2.25515625 7.73867187 2.2603125 8.60234375 2.265625 9.4921875 C2 12 2 12 0.9921875 13.9921875 C-0.26671426 16.53972885 -0.1993126 18.42612131 -0.125 21.25 C-0.10695313 22.14203125 -0.08890625 23.0340625 -0.0703125 23.953125 C-0.04710938 24.62859375 -0.02390625 25.3040625 0 26 C-1.99954746 26.04254356 -4.00041636 26.04080783 -6 26 C-7 25 -7 25 -7.1875 21.5 C-7.03696898 13.07026282 -4.89386968 6.85515333 0 0 Z " fill="#F2F2F2" transform="translate(73,228)"/>
<path d="M0 0 C1.32 0 2.64 0 4 0 C4 10.89 4 21.78 4 33 C2.68 33 1.36 33 0 33 C0 22.11 0 11.22 0 0 Z " fill="#161616" transform="translate(348,227)"/>
<path d="M0 0 C5.48992736 0.25322543 8.76081215 3.81293143 12.3125 7.6875 C15.3125 11.34438488 15.3125 11.34438488 15.3125 13.6875 C9.38382938 13.42973171 5.68685439 11.37497961 0.7421875 8.16015625 C-1.67192651 6.69693924 -4.04311978 5.66149769 -6.6875 4.6875 C-4.92384431 1.16018862 -3.95414721 0.73721389 0 0 Z " fill="#F3F3F3" transform="translate(86.6875,201.3125)"/>
<path d="M0 0 C3.63 0.33 7.26 0.66 11 1 C10.95117188 5.19921875 10.95117188 5.19921875 10.90234375 9.3984375 C10.81993398 11.98432453 10.81993398 11.98432453 12 14 C9.25 14.3125 9.25 14.3125 6 14 C2.9769386 11.06091253 1.23599966 8.0169989 0 4 C0 2.68 0 1.36 0 0 Z " fill="#F8F8F8" transform="translate(67,257)"/>
<path d="M0 0 C2.4375 0.375 2.4375 0.375 5 1 C5.33 1.66 5.66 2.32 6 3 C8.32156597 3.40729228 10.6568787 3.74438677 13 4 C10.42215154 6.64752004 8.08351902 8.94432065 5 11 C0.45945946 10.45945946 0.45945946 10.45945946 -1 9 C-0.91062197 7.47480724 -0.75462854 5.95318071 -0.5625 4.4375 C-0.46066406 3.61121094 -0.35882813 2.78492188 -0.25390625 1.93359375 C-0.17011719 1.29550781 -0.08632812 0.65742188 0 0 Z " fill="#F1F1F1" transform="translate(81,258)"/>
<path d="M0 0 C8.16964286 1.74107143 8.16964286 1.74107143 11 5 C9.04414675 6.00484204 7.08523763 7.00373805 5.125 8 C4.03445312 8.556875 2.94390625 9.11375 1.8203125 9.6875 C-1 11 -1 11 -3 11 C-3.36923077 4.6 -3.36923077 4.6 -1.5 1.5625 C-1.005 1.046875 -0.51 0.53125 0 0 Z " fill="#EDEDED" transform="translate(78,209)"/>
<path d="M0 0 C1.62490954 -0.02698189 3.24994633 -0.04638757 4.875 -0.0625 C5.77992188 -0.07410156 6.68484375 -0.08570313 7.6171875 -0.09765625 C10 0 10 0 12 1 C12 3.97 12 6.94 12 10 C11.01 10 10.02 10 9 10 C8.67 8.02 8.34 6.04 8 4 C5.03 4 2.06 4 -1 4 C-0.67 2.68 -0.34 1.36 0 0 Z " fill="#101010" transform="translate(127,205)"/>
<path d="M0 0 C1.65 0 3.3 0 5 0 C5 4 5 4 2.375 6.8125 C-0.29084925 8.89440132 -0.78846545 9.01175192 -4.375 8.8125 C-5.24125 8.544375 -6.1075 8.27625 -7 8 C-3.25 5 -3.25 5 -1 5 C-0.67 3.35 -0.34 1.7 0 0 Z " fill="#EDEDED" transform="translate(108,252)"/>
<path d="M0 0 C-3.1040877 2.58673975 -6.4198157 4.2624338 -10.02734375 6.015625 C-12.43357104 7.21635624 -14.72038977 8.57524361 -17 10 C-17 8.68 -17 7.36 -17 6 C-15.390625 4.55078125 -15.390625 4.55078125 -13.25 3.3125 C-12.55390625 2.89613281 -11.8578125 2.47976562 -11.140625 2.05078125 C-7.36930322 0.19953023 -4.17580602 -0.11599461 0 0 Z " fill="#E8E8E8" transform="translate(94,217)"/>
<path d="M0 0 C0.66 0.33 1.32 0.66 2 1 C1 4 1 4 -0.58227539 4.9831543 C-1.24735107 5.26070557 -1.91242676 5.53825684 -2.59765625 5.82421875 C-3.31630859 6.13037109 -4.03496094 6.43652344 -4.77539062 6.75195312 C-5.53013672 7.06068359 -6.28488281 7.36941406 -7.0625 7.6875 C-7.82111328 8.00783203 -8.57972656 8.32816406 -9.36132812 8.65820312 C-11.23682542 9.44850702 -13.1179123 10.22552197 -15 11 C-14.69311523 9.12231445 -14.69311523 9.12231445 -14 7 C-11.6779979 5.52930082 -9.53072514 4.34455698 -7.0625 3.1875 C-6.41603516 2.86330078 -5.76957031 2.53910156 -5.10351562 2.20507812 C-3.43606649 1.39646053 -1.71990784 0.69004787 0 0 Z " fill="#161616" transform="translate(133,264)"/>
<path d="M0 0 C-0.66 2.31 -1.32 4.62 -2 7 C-4.64 6.67 -7.28 6.34 -10 6 C-10 5.34 -10 4.68 -10 4 C-3.375 0 -3.375 0 0 0 Z " fill="#E9E9E9" transform="translate(102,240)"/>
<path d="M0 0 C2.875 -0.125 2.875 -0.125 6 0 C6.66 0.66 7.32 1.32 8 2 C4.5647952 4.29013653 3.014669 4.17842973 -1 4 C-0.67 2.68 -0.34 1.36 0 0 Z " fill="#D2D2D2" transform="translate(89,249)"/>
<path d="M0 0 C0.78375 0.04125 1.5675 0.0825 2.375 0.125 C2.375 0.785 2.375 1.445 2.375 2.125 C-0.595 3.445 -3.565 4.765 -6.625 6.125 C-3.64939024 0.17378049 -3.64939024 0.17378049 0 0 Z " fill="#CBCBCB" transform="translate(99.625,262.875)"/>
<path d="M0 0 C0.33 0 0.66 0 1 0 C1 2.97 1 5.94 1 9 C-0.32 8.34 -1.64 7.68 -3 7 C-1.125 1.125 -1.125 1.125 0 0 Z " fill="#DDDDDD" transform="translate(105,242)"/>
<path d="M0 0 C-3.1254959 2.64465038 -6.08788267 3.84414715 -10 5 C-9.67 3.68 -9.34 2.36 -9 1 C-5.92677456 0.08941469 -3.19902639 -0.08886184 0 0 Z " fill="#E0E0E0" transform="translate(94,217)"/>
<path d="M0 0 C0.66 0 1.32 0 2 0 C2.66 2.64 3.32 5.28 4 8 C2.68 7.34 1.36 6.68 0 6 C0 4.02 0 2.04 0 0 Z " fill="#D4D4D4" transform="translate(75,245)"/>
<path d="M0 0 C0.33 0 0.66 0 1 0 C1 1.65 1 3.3 1 5 C-0.98 5.99 -0.98 5.99 -3 7 C-2.25 2.25 -2.25 2.25 0 0 Z " fill="#ECECEC" transform="translate(120,253)"/>
</svg>
